<?xml version="1.0" encoding="UTF-8"?>
<svg width="12px" height="12px" viewBox="0 0 12 12" version="1.1" xmlns="http://www.w3.org/2000/svg" xmlns:xlink="http://www.w3.org/1999/xlink">
    <!-- Generator: Sketch 52.5 (67469) - http://www.bohemiancoding.com/sketch -->
    <title>正常icon</title>
    <desc>Created with Sketch.</desc>
    <g id="Page-1" stroke="none" stroke-width="1" fill="none" fill-rule="evenodd">
        <g id="基础设施运行监测0523" transform="translate(-268.000000, -279.000000)">
            <g id="分组-6" transform="translate(39.000000, 133.000000)">
                <g id="正常icon" transform="translate(229.000000, 146.000000)">
                    <circle id="椭圆形" fill="#10AA3F" cx="6" cy="6" r="6"></circle>
                    <path d="M4.1714218,5.16709113 L4.1714218,5.16709113 C4.64619704,5.16709113 5.03241087,5.5494394 5.03718662,6.02419062 L5.06699176,8.98708391 C5.07178455,9.46353002 4.68943399,9.85365123 4.21298788,9.85844403 C4.21259214,9.85844801 4.2121964,9.85845172 4.21180065,9.85845516 L4.21180065,9.85845516 C3.7354187,9.86259166 3.34588154,9.47976108 3.34174504,9.00337913 C3.34174123,9.00294101 3.34173776,9.00250289 3.34173463,9.00206477 L3.32041532,6.02421202 C3.31705046,5.55421412 3.69533129,5.17047779 4.16532919,5.16711294 C4.16736003,5.1670984 4.16939091,5.16709113 4.1714218,5.16709113 Z" id="矩形" fill="#FFFFFF" transform="translate(4.193715, 7.512790) rotate(-45.000000) translate(-4.193715, -7.512790) "></path>
                    <path d="M7.324181,2.79224186 L7.324181,2.79224186 C7.79786713,2.79224186 8.18215215,3.17569769 8.18317535,3.64938272 L8.19536007,9.29025474 C8.19638974,9.76693623 7.81456833,10.156166 7.33795505,10.1642956 L7.33795505,10.1642956 C6.87068684,10.1722659 6.48542994,9.79993135 6.47745967,9.33266314 C6.47738522,9.32829811 6.47734454,9.32393257 6.47733765,9.31956691 L6.46839063,3.64938365 C6.46764485,3.17674368 6.85019067,2.79298871 7.32283064,2.79224293 C7.32328076,2.79224222 7.32373088,2.79224186 7.324181,2.79224186 Z" id="矩形-copy-3" fill="#FFFFFF" transform="translate(7.331876, 6.478332) scale(-1, 1) rotate(-45.000000) translate(-7.331876, -6.478332) "></path>
                </g>
            </g>
        </g>
    </g>
</svg>