<svg t="1688571314825" class="icon" viewBox="0 0 1024 1024" version="1.1" xmlns="http://www.w3.org/2000/svg" p-id="2523" width="200" height="200"><path d="M953.344 665.088v146.432l52.224 104.96c2.048 4.608 3.072 9.728 3.072 13.824 0 4.608-1.024 9.728-4.608 13.312-2.56 4.608-6.144 7.68-10.24 9.728-3.584 2.56-8.704 3.584-13.824 3.584H865.28c-5.12 18.432-15.872 34.304-30.72 46.08-15.872 13.312-36.352 20.992-58.88 20.992s-43.008-7.68-58.88-20.992c-14.848-12.288-25.6-28.16-30.72-46.08h-115.2c-5.12 0-9.728-1.024-13.824-3.584-3.584-2.56-7.68-5.632-10.24-9.728-2.56-4.608-3.584-8.704-4.608-13.312-0.512-4.608 0.512-9.728 3.072-13.824l52.224-104.96v-146.432c0-49.152 19.968-93.184 51.712-125.44 21.504-20.992 48.64-36.864 78.336-45.568 3.072-19.968 23.04-35.84 46.592-35.84 24.064 0 44.032 15.36 46.592 35.84 30.208 8.192 56.832 24.064 78.336 45.568 34.304 32.256 53.76 76.288 54.272 125.44z m-200.192 299.008c6.144 4.608 14.848 7.68 23.552 7.68 8.704 0 16.384-2.56 23.04-7.68 3.072-2.048 5.632-4.608 7.68-7.168h-61.952c1.536 2.56 4.096 5.12 7.68 7.168zM650.24 817.664l-43.52 87.04h338.432l-44.544-89.6v-150.528c0-34.304-13.824-66.048-36.352-88.064s-53.76-36.352-88.064-36.352c-34.304 0-66.048 13.824-88.064 36.352-22.528 22.528-36.352 53.76-36.352 88.064v150.528l-1.536 2.56zM681.984 327.68H259.072c-9.728 0-18.944-3.584-25.6-10.24-6.144-6.144-10.752-15.36-10.752-25.6 0-9.728 3.584-18.944 10.752-25.6 6.144-6.144 15.872-10.24 25.6-10.24h422.912c9.728 0 18.944 3.584 25.6 10.24 6.144 6.144 10.752 15.36 10.752 25.6 0 9.728-3.584 18.944-10.752 25.6-7.168 6.656-15.872 10.24-25.6 10.24zM470.528 533.504H259.072c-10.24 0-18.944-4.608-25.6-12.288-6.144-7.168-10.752-17.408-10.752-26.624s3.584-19.968 10.752-26.624c6.144-7.168 15.36-12.288 25.6-12.288h211.456c10.24 0 18.944 4.608 25.6 12.288 6.144 7.168 10.752 17.408 10.752 26.624s-3.584 19.968-10.752 26.624c-6.144 7.68-15.872 12.288-25.6 12.288zM470.528 739.328H259.072c-10.24 0-18.944-4.608-25.6-12.288-6.144-7.168-10.752-17.408-10.752-26.624s3.584-19.968 10.752-26.624c6.144-7.168 15.36-12.288 25.6-12.288h211.456c10.24 0 18.944 4.608 25.6 12.288 6.144 7.168 10.752 17.408 10.752 26.624s-3.584 19.968-10.752 26.624c-6.144 7.68-15.872 12.288-25.6 12.288z" p-id="2524" fill="#8a8a8a"></path><path d="M514.048 941.568v15.36c0 14.848-12.288 26.624-26.624 26.624H199.168c-36.864 0-71.68-15.36-95.744-39.424-24.064-24.064-39.424-58.88-39.424-95.744V136.192c0-37.888 15.36-71.68 39.424-95.744S161.792 1.024 199.168 1.024h597.504c8.704 0 17.92 3.584 24.064 10.24 6.144 6.144 10.24 14.848 10.24 24.064s-3.584 17.92-10.24 24.064c-6.144 6.144-14.848 10.24-24.064 10.24H199.168c-18.432 0-35.328 7.68-47.104 19.968-12.288 12.288-19.968 28.672-19.968 47.104v711.68c0 18.432 7.68 35.328 19.968 47.104s28.672 19.968 47.104 19.968h288.256c14.336-0.512 26.624 11.264 26.624 26.112z" p-id="2525" fill="#8a8a8a"></path><path d="M849.92 427.52V136.192c0-18.432-7.68-35.328-19.968-47.104-12.288-12.288-28.672-19.968-47.104-19.968h-124.416c-9.728 0-17.92-3.584-24.064-10.24-6.144-6.144-10.24-14.848-10.24-24.064s3.584-17.92 10.24-24.064c6.144-6.144 14.848-10.24 24.064-10.24h124.416c37.888 0 71.68 15.36 95.744 39.424 24.064 24.064 39.424 58.88 39.424 95.744v291.84c0 14.848-12.288 26.624-26.624 26.624h-15.36c-13.824 0-26.112-12.288-26.112-26.624z" p-id="2526" fill="#8a8a8a"></path></svg>