<svg t="1688836262332" class="icon" viewBox="0 0 1024 1024" version="1.1" xmlns="http://www.w3.org/2000/svg" p-id="6651" width="200" height="200"><path d="M696 192h-368a24 24 0 0 0 0 48h368a24 24 0 0 0 0-48z m136 0h-40a24 24 0 0 0 0 48H832a16 16 0 0 1 16 16v640a16 16 0 0 1-16 16H192a16 16 0 0 1-16-16V256a16 16 0 0 1 16-16h40a24 24 0 0 0 0-48H192a64 64 0 0 0-64 64v640a64 64 0 0 0 64 64h640a64 64 0 0 0 64-64V256a64 64 0 0 0-64-64z" fill="#bfbfbf" p-id="6652"></path><path d="M304 736m24 0l368 0q24 0 24 24l0 0q0 24-24 24l-368 0q-24 0-24-24l0 0q0-24 24-24Z" fill="#bfbfbf" p-id="6653"></path><path d="M304 560m24 0l368 0q24 0 24 24l0 0q0 24-24 24l-368 0q-24 0-24-24l0 0q0-24 24-24Z" fill="#bfbfbf" p-id="6654"></path><path d="M304 384m24 0l368 0q24 0 24 24l0 0q0 24-24 24l-368 0q-24 0-24-24l0 0q0-24 24-24Z" fill="#bfbfbf" p-id="6655"></path><path d="M656 192a144 144 0 0 0-288 0v8a138.24 138.24 0 0 0 5.76 40h51.04a93.12 93.12 0 0 1-8.8-40V192a96 96 0 0 1 192 0v8a93.12 93.12 0 0 1-8.8 40h51.04a138.24 138.24 0 0 0 5.76-40V192z" fill="#bfbfbf" p-id="6656"></path></svg>