<svg t="1687842523323" class="icon" viewBox="0 0 1024 1024" version="1.1" xmlns="http://www.w3.org/2000/svg" p-id="6328" width="200" height="200"><path d="M857.86 697.13c0 18.47-14.98 33.45-33.45 33.45h-33.1c-18.47 0-33.45-14.98-33.45-33.45v-66.38H266.14v66.38c0 18.47-14.98 33.45-33.45 33.45h-33.1c-18.47 0-33.45-14.98-33.45-33.45v-66.38H0V904c0 66.27 53.73 120 120 120h784c66.28 0 120-53.73 120-120V630.75H857.86v66.38zM904 173.03H767.86V120c0-66.27-53.73-120-120-120H376.14c-66.27 0-120 53.73-120 120v53.03H120c-66.27 0-120 53.73-120 120v240.75h166.14v-66.74c0-18.47 14.98-33.45 33.45-33.45h33.1c18.47 0 33.45 14.98 33.45 33.45v66.74h491.71v-66.74c0-18.47 14.98-33.45 33.45-33.45h33.1c18.47 0 33.45 14.98 33.45 33.45v66.74H1024V293.03c0-66.27-53.72-120-120-120z m-226.14 0H346.14V120c0-16.54 13.46-30 30-30h271.71c16.54 0 30 13.46 30 30v53.03z" p-id="6329"></path></svg>