<svg t="1688031472007" class="icon" viewBox="0 0 1024 1024" version="1.1" xmlns="http://www.w3.org/2000/svg" p-id="17475" width="200" height="200"><path d="M850.147556 711.224889a123.448889 123.448889 0 0 0-72.248889 23.893333l-102.286223-61.838222c4.835556-15.36 7.395556-31.288889 7.509334-47.331556-0.284444-77.596444-51.768889-145.237333-125.269334-164.636444v-98.986667c57.514667-20.764444 91.989333-80.782222 81.692445-142.222222C629.248 158.663111 577.080889 113.777778 516.096 113.777778 455.111111 113.777778 402.944 158.72 392.647111 220.103111c-10.296889 61.44 24.177778 121.457778 81.692445 142.222222v98.986667c-73.557333 19.342222-124.984889 87.04-125.269334 164.636444 0.170667 16.042667 2.673778 32.028444 7.509334 47.331556L254.293333 735.118222a123.448889 123.448889 0 0 0-72.248889-23.893333C112.924444 711.224889 56.888889 768.512 56.888889 839.168 56.832 909.824 112.924444 967.111111 182.044444 967.111111c69.233778 0 125.269333-57.287111 125.269334-127.943111a130.56 130.56 0 0 0-5.006222-34.133333l96.028444-58.424889a164.522667 164.522667 0 0 0 235.52 0l96.028444 58.424889a129.308444 129.308444 0 0 0 50.631112 140.174222c44.544 30.72 103.367111 29.013333 146.090666-4.380445a129.592889 129.592889 0 0 0 42.552889-142.904888 125.496889 125.496889 0 0 0-119.011555-86.698667z m-670.151112 189.781333a56.661333 56.661333 0 0 1-49.208888-29.013333 59.164444 59.164444 0 0 1 0-58.140445 56.661333 56.661333 0 0 1 49.265777-29.013333c31.402667 0 56.888889 25.998222 56.888889 58.026667a57.457778 57.457778 0 0 1-56.888889 58.140444zM513.649778 183.239111c20.309333 0 39.082667 11.093333 49.265778 29.013333a59.164444 59.164444 0 0 1 0 58.140445 56.661333 56.661333 0 0 1-49.265778 29.013333c-31.459556 0-56.888889-25.998222-56.888889-58.026666a57.457778 57.457778 0 0 1 56.888889-58.140445z m-0.455111 542.492445c-55.011556 0-99.555556-45.511111-99.555556-101.717334 0-56.149333 44.544-101.717333 99.555556-101.717333 54.954667 0 99.555556 45.511111 99.555555 101.717333 0 56.149333-44.600889 101.717333-99.555555 101.717334z m338.887111 171.804444a56.661333 56.661333 0 0 1-49.265778-29.070222 59.164444 59.164444 0 0 1 0-58.140445 56.661333 56.661333 0 0 1 49.265778-29.013333c31.402667 0 56.888889 25.998222 56.888889 58.026667a57.457778 57.457778 0 0 1-56.888889 58.140444z" fill="#909399" p-id="17476"></path></svg>