<svg t="1687842159570" class="icon" viewBox="0 0 1024 1024" version="1.1" xmlns="http://www.w3.org/2000/svg" p-id="4928" width="200" height="200"><path d="M96 64a32 32 0 0 1 32 32v832a32 32 0 0 1-64 0v-832a32 32 0 0 1 32-32zM926.4 225.6a32 32 0 0 1 0 45.248l-271.488 271.488a32 32 0 0 1-45.248-45.248l271.488-271.488a32 32 0 0 1 45.248 0zM465.152 302.848a32 32 0 0 1 0 45.248L284.096 529.152a32 32 0 0 1-45.248-45.248L419.84 302.912a32 32 0 0 1 45.312-0.064z" p-id="4929"></path><path d="M426.304 297.28a33.472 33.472 0 0 0 0 47.296l189.12 189.12a33.472 33.472 0 0 0 47.296-47.296L473.6 297.28a33.28 33.28 0 0 0-47.296 0zM960 928a32 32 0 0 1-32 32h-832a32 32 0 0 1 0-64h832a32 32 0 0 1 32 32z" p-id="4930"></path></svg>