<svg t="1688031161634" class="icon" viewBox="0 0 1024 1024" version="1.1" xmlns="http://www.w3.org/2000/svg" p-id="16227" width="64" height="64"><path d="M400 138.666667a12.8 12.8 0 0 1 12.373333 13.226666v720.213334a12.8 12.8 0 0 1-12.373333 13.226666H151.04a13.013333 13.013333 0 0 1-12.373333-13.226666V151.893333a13.013333 13.013333 0 0 1 12.373333-13.226666h248.96m0-74.666667H151.04A87.68 87.68 0 0 0 64 151.893333v720.213334A87.68 87.68 0 0 0 151.04 960h248.96a87.68 87.68 0 0 0 87.04-87.893333V151.893333A87.68 87.68 0 0 0 400 64zM872.96 138.666667a13.013333 13.013333 0 0 1 12.373333 13.226666v720.213334a13.013333 13.013333 0 0 1-12.373333 13.226666H624a12.8 12.8 0 0 1-12.373333-13.226666V151.893333a12.8 12.8 0 0 1 12.373333-13.226666h248.96m0-74.666667H624a87.68 87.68 0 0 0-87.04 87.893333v720.213334A87.68 87.68 0 0 0 624 960h248.96A87.68 87.68 0 0 0 960 872.106667V151.893333A87.68 87.68 0 0 0 872.96 64z" p-id="16228"></path><path d="M275.626667 736a46.506667 46.506667 0 1 0 45.653333 46.506667 46.08 46.08 0 0 0-45.653333-46.506667zM312.533333 195.2h-74.026666a37.76 37.76 0 0 0 0 75.306667h74.026666a37.76 37.76 0 0 0 0-75.306667zM312.533333 321.706667h-74.026666a37.76 37.76 0 0 0 0 75.306666h74.026666a37.76 37.76 0 0 0 0-75.306666zM312.533333 449.066667h-74.026666a37.76 37.76 0 0 0 0 75.306666h74.026666a37.76 37.76 0 0 0 0-75.306666zM748.373333 736a46.506667 46.506667 0 1 0 45.653334 46.506667 46.08 46.08 0 0 0-45.653334-46.506667zM785.493333 195.2h-74.026666a37.76 37.76 0 0 0 0 75.306667h74.026666a37.76 37.76 0 0 0 0-75.306667zM785.493333 321.706667h-74.026666a37.76 37.76 0 0 0 0 75.306666h74.026666a37.76 37.76 0 0 0 0-75.306666zM785.493333 449.066667h-74.026666a37.76 37.76 0 0 0 0 75.306666h74.026666a37.76 37.76 0 0 0 0-75.306666z" p-id="16229"></path></svg>