<svg t="1687846684560" class="icon" viewBox="0 0 1024 1024" version="1.1" xmlns="http://www.w3.org/2000/svg" p-id="93257" width="64" height="64"><path d="M307.2 0H0v307.2A170.666667 170.666667 0 0 0 170.666667 477.866667H477.866667V170.666667A170.666667 170.666667 0 0 0 307.2 0zM409.6 409.6H170.666667A102.4 102.4 0 0 1 68.266667 307.2V68.266667h238.933333A102.4 102.4 0 0 1 409.6 170.666667zM170.666667 546.133333A170.666667 170.666667 0 0 0 0 716.8V1024h307.2A170.666667 170.666667 0 0 0 477.866667 853.333333V546.133333H170.666667zM409.6 853.333333A102.4 102.4 0 0 1 307.2 955.733333H68.266667v-238.933333A102.4 102.4 0 0 1 170.666667 614.4H409.6zM989.866667 0h-273.066667A170.666667 170.666667 0 0 0 546.133333 170.666667V477.866667h307.2A170.666667 170.666667 0 0 0 1024 307.2V0zM955.733333 307.2A102.4 102.4 0 0 1 853.333333 409.6H614.4V170.666667A102.4 102.4 0 0 1 716.8 68.266667H955.733333zM853.333333 546.133333H546.133333v307.2a170.666667 170.666667 0 0 0 170.666667 170.666667H1024v-307.2A170.666667 170.666667 0 0 0 853.333333 546.133333z m102.4 409.6h-238.933333A102.4 102.4 0 0 1 614.4 853.333333V614.4h238.933333a102.4 102.4 0 0 1 102.4 102.4z" p-id="93258"></path></svg>