<svg t="1687846585618" class="icon" viewBox="0 0 1024 1024" version="1.1" xmlns="http://www.w3.org/2000/svg" p-id="89377" width="64" height="64"><path d="M512 0a512 512 0 1 0 512 512A512 512 0 0 0 512 0z m0 768c-226.304 0-409.6-114.688-409.6-256s183.296-256 409.6-256 409.6 114.688 409.6 256-183.296 256-409.6 256z" p-id="89378"></path><path d="M512 358.4a153.6 153.6 0 1 0 153.6 153.6 153.6 153.6 0 0 0-153.6-153.6z m0 204.8a51.2 51.2 0 1 1 51.2-51.2 51.2 51.2 0 0 1-51.2 51.2z" p-id="89379"></path></svg>