<svg t="1688031715877" class="icon" viewBox="0 0 1024 1024" version="1.1" xmlns="http://www.w3.org/2000/svg" p-id="18450" width="64" height="64"><path d="M287.744 27.648H119.808c-31.744 0-62.464 12.288-84.992 35.84C12.288 84.992 0 115.712 0 147.456V317.44c0 66.56 53.248 120.832 119.808 120.832h167.936c31.744 0 62.464-12.288 84.992-35.84 22.528-22.528 35.84-53.248 35.84-84.992V147.456c0-31.744-12.288-62.464-35.84-84.992-21.504-22.528-52.224-34.816-84.992-34.816z m315.392 122.88h360.448c32.768 0 59.392-27.648 59.392-60.416 0-16.384-6.144-31.744-17.408-43.008s-26.624-17.408-41.984-17.408H603.136c-21.504 0-41.984 11.264-52.224 29.696-11.264 18.432-11.264 41.984 0 60.416 11.264 19.456 30.72 30.72 52.224 30.72z m360.448 120.832H603.136c-33.792 0-60.416 26.624-60.416 60.416 0 33.792 26.624 60.416 60.416 60.416h360.448c33.792 0 60.416-26.624 60.416-60.416 0-33.792-26.624-60.416-60.416-60.416z m0 603.136H603.136c-21.504 0-41.984 11.264-52.224 29.696-11.264 18.432-11.264 41.984 0 60.416 11.264 18.432 30.72 29.696 52.224 29.696h360.448c33.792 0 60.416-26.624 60.416-60.416 0-32.768-26.624-59.392-60.416-59.392z m0-241.664H603.136c-21.504 0-41.984 11.264-52.224 29.696-11.264 18.432-11.264 41.984 0 60.416 11.264 18.432 30.72 29.696 52.224 29.696h360.448c33.792 0 60.416-26.624 60.416-60.416 0-32.768-26.624-59.392-60.416-59.392z m-675.84-46.08H119.808C53.248 586.752 0 641.024 0 707.584v168.96c0 31.744 12.288 62.464 34.816 84.992 22.528 22.528 53.248 34.816 84.992 34.816h167.936c31.744 0 62.464-12.288 84.992-35.84 22.528-22.528 35.84-53.248 35.84-84.992V707.584c0-31.744-12.288-62.464-35.84-84.992-21.504-22.528-52.224-35.84-84.992-35.84z m0 0" fill="#8a8a8a" p-id="18451"></path></svg>