<?xml version="1.0" encoding="UTF-8"?>
<svg width="11px" height="11px" viewBox="0 0 11 11" version="1.1" xmlns="http://www.w3.org/2000/svg" xmlns:xlink="http://www.w3.org/1999/xlink">
    <!-- Generator: Sketch 52.5 (67469) - http://www.bohemiancoding.com/sketch -->
    <title>icon-关闭</title>
    <desc>Created with Sketch.</desc>
    <g id="Page-1" stroke="none" stroke-width="1" fill="none" fill-rule="evenodd">
        <g id="⭐️招商选址-弹窗" transform="translate(-1521.000000, -489.000000)" fill="#FFFFFF" fill-rule="nonzero">
            <path d="M1531.55208,498.539085 L1527.39427,494.381216 L1531.55206,490.222931 C1531.68762,490.087391 1531.76218,489.907177 1531.76205,489.715467 C1531.76192,489.524333 1531.68747,489.344918 1531.55245,489.210273 C1531.41721,489.074685 1531.2376,489.000112 1531.04644,489 C1530.85445,489 1530.67443,489.074557 1530.53902,489.209922 L1526.38133,493.367631 L1522.22293,489.209922 C1522.08757,489.074557 1521.90769,489 1521.71643,489 C1521.52518,489 1521.3453,489.074541 1521.20995,489.20989 C1521.07464,489.344838 1521.00013,489.524333 1521,489.715467 C1520.99987,489.907177 1521.07443,490.087391 1521.20995,490.222915 L1525.36832,494.3812 L1521.20994,498.539101 C1521.07456,498.674465 1521,498.854311 1521,499.045589 C1521,499.236835 1521.07457,499.416729 1521.20995,499.55211 C1521.3453,499.687474 1521.52516,499.761999 1521.71641,499.761999 C1521.90767,499.761999 1522.08757,499.687458 1522.22292,499.55211 L1526.38126,495.394289 L1530.5391,499.55211 C1530.67446,499.687474 1530.8545,499.761999 1531.04602,499.761999 C1531.23767,499.761871 1531.4171,499.687442 1531.55179,499.552429 C1531.83128,499.272907 1531.83136,498.818367 1531.55208,498.539085 Z" id="icon-关闭"></path>
        </g>
    </g>
</svg>