<?xml version="1.0" encoding="UTF-8"?>
<svg width="12px" height="12px" viewBox="0 0 12 12" version="1.1" xmlns="http://www.w3.org/2000/svg" xmlns:xlink="http://www.w3.org/1999/xlink">
    <!-- Generator: Sketch 52.5 (67469) - http://www.bohemiancoding.com/sketch -->
    <title>分组 3</title>
    <desc>Created with Sketch.</desc>
    <g id="Page-1" stroke="none" stroke-width="1" fill="none" fill-rule="evenodd">
        <g id="⭐️招商选址-弹窗" transform="translate(-38.000000, -145.000000)">
            <g id="分组-3" transform="translate(38.000000, 145.000000)">
                <rect id="矩形-copy-22" fill="#00A8FF" x="0" y="0" width="12" height="12" rx="3"></rect>
                <path d="M10.2468573,3.91972539 L5.5668573,8.77672539 C5.47743066,8.90208437 5.33695466,8.98126003 5.18340435,8.99284874 C5.02985403,9.00443744 4.87908591,8.94724247 4.7718573,8.83672539 C4.7574603,8.81766896 4.74442785,8.79761903 4.7328573,8.77672539 L2.1528573,6.10372539 C1.94904757,5.88944932 1.94904757,5.55300146 2.1528573,5.33872539 C2.24857142,5.23801685 2.38142061,5.181 2.5203573,5.181 C2.65929399,5.181 2.79214319,5.23801685 2.8878573,5.33872539 L5.1468573,7.68172539 L9.4998573,3.15772539 C9.59557142,3.05701685 9.72842061,3 9.8673573,3 C10.006294,3 10.1391432,3.05701685 10.2348573,3.15772539 C10.4401741,3.36840398 10.4454384,3.70268621 10.2468573,3.91972539 Z" id="路径-copy-3" fill="#FFFFFF" fill-rule="nonzero"></path>
            </g>
        </g>
    </g>
</svg>