<?xml version="1.0" encoding="UTF-8"?>
<svg width="18px" height="18px" viewBox="0 0 18 18" version="1.1" xmlns="http://www.w3.org/2000/svg" xmlns:xlink="http://www.w3.org/1999/xlink">
    <!-- Generator: Sketch 52.5 (67469) - http://www.bohemiancoding.com/sketch -->
    <title>规划</title>
    <desc>Created with Sketch.</desc>
    <g id="Page-1" stroke="none" stroke-width="1" fill="none" fill-rule="evenodd">
        <g id="⭐️招商选址-圈地" transform="translate(-1668.000000, -104.000000)" fill="#FFFFFF" fill-rule="nonzero">
            <g id="Group-2" transform="translate(1668.000000, 103.000000)">
                <g id="规划" transform="translate(0.000000, 1.000000)">
                    <path d="M17.4599665,13.0683173 L13.0820536,8.6903555 L17.2253923,4.54699235 L17.2403708,4.53062103 C17.3609566,4.38586917 17.422117,4.22274232 17.422117,4.04578537 C17.422117,3.86885286 17.3609566,3.70575044 17.240322,3.56092529 L17.2332359,3.55244641 L14.2384802,0.557641868 C14.0788964,0.398106944 13.8703696,0.310239342 13.6513359,0.310239342 C13.4323022,0.310239342 13.2237755,0.398082516 13.0641917,0.557568563 L9.00398025,4.61237993 L4.65223699,0.260514482 C4.4928731,0.101175027 4.29253204,0.016972654 4.07286301,0.016972654 C3.84952878,0.016972654 3.63266978,0.105744355 3.47782635,0.260538911 L0.25631556,3.48207413 C0.11642623,3.62201233 0.0322971429,3.79699005 0.0130425067,3.98807034 L0.0117963281,4.12871715 L0.0130425067,4.1504397 C0.0322971429,4.34147111 0.11642623,4.51644883 0.256339989,4.65646034 L4.60527326,9.00532031 L1.27287727,12.3333425 C1.16981122,12.4364085 1.10034303,12.5593889 1.05425896,12.7204388 L1.05220643,12.7276471 L0.316620683,16.0614847 C0.221666987,16.4295953 0.326125828,16.8117802 0.596301609,17.0847905 C0.792219978,17.2979843 1.05342818,17.4106532 1.35182618,17.4106532 C1.40734207,17.4106532 1.4549411,17.4050332 1.49367027,17.4004639 C1.51852048,17.3975317 1.53997425,17.3949905 1.55512384,17.3949905 L1.58163563,17.3949905 L4.95408027,16.6543467 L4.97897936,16.6474805 C5.12651678,16.5982688 5.24473244,16.5277744 5.34037032,16.4320143 L8.68615658,13.0862525 L13.0641184,17.4642388 C13.2235067,17.6235782 13.4238722,17.7077806 13.6435168,17.7077806 C13.8669488,17.7077806 14.0838078,17.6189845 14.2385046,17.4641899 L17.4600398,14.2427035 C17.7892501,13.9134688 17.7892257,13.3976254 17.4599665,13.0683173 Z M12.2580382,2.94831998 L13.6436145,1.56088659 L16.1286111,4.04588312 L14.7430103,5.43331649 L12.2580382,2.94831998 Z M13.9445293,6.23284817 L5.03921119,15.1500416 L2.55428797,12.6650451 L11.4596061,3.74785164 L13.9445293,6.23284817 Z M5.39701021,8.21463404 L5.04910728,7.86673111 L7.21562038,5.70041349 L6.41660185,4.90119947 L4.25013762,7.06776143 L3.18602575,6.00364957 L5.35749913,3.83220064 L4.55874937,3.03305993 L2.38710496,5.20470434 L1.25946255,4.07706194 L4.07256981,1.2639547 L8.2050839,5.41025002 L5.39701021,8.21463404 Z M3.98565516,15.694596 L1.43426925,16.2549596 L1.9911876,13.7001284 L3.98565516,15.694596 Z M14.691575,13.173045 L13.8925809,12.3739776 L11.7323231,14.5342598 L10.6570934,13.4590545 L12.8224581,11.2938853 L12.0236594,10.4946469 L9.85814817,12.6601337 L9.48519954,12.2871851 L12.2842812,9.48810343 L16.456282,13.6325906 L13.6435168,16.445429 L12.5311706,15.3330828 L14.691575,13.173045 Z" id="形状"></path>
                </g>
            </g>
        </g>
    </g>
</svg>