<?xml version="1.0" encoding="UTF-8"?>
<svg width="13px" height="13px" viewBox="0 0 13 13" version="1.1" xmlns="http://www.w3.org/2000/svg" xmlns:xlink="http://www.w3.org/1999/xlink">
    <!-- Generator: Sketch 51.3 (57544) - http://www.bohemiancoding.com/sketch -->
    <title>感叹号</title>
    <desc>Created with Sketch.</desc>
    <defs></defs>
    <g id="Page-1" stroke="none" stroke-width="1" fill="none" fill-rule="evenodd">
        <g id="登陆错误" transform="translate(-846.000000, -415.000000)" fill="#D81E06" fill-rule="nonzero">
            <g id="感叹号" transform="translate(846.000000, 415.000000)">
                <path d="M6.5,0.00162141732 C10.0889991,0.00162141732 12.9983786,2.91100094 12.9983786,6.5 C12.9983786,10.0889991 10.0889991,12.9983786 6.5,12.9983786 C2.91100094,12.9983786 0.00162141732,10.0889991 0.00162141732,6.5 C0.00162141732,2.91100094 2.91100094,0.00162141732 6.5,0.00162141732 Z M6.5,8.72596031 C5.95651402,8.72596031 5.51588157,9.16646173 5.51588157,9.71007874 C5.51588157,10.2535647 5.95651402,10.6941972 6.5,10.6941972 C7.04348598,10.6941972 7.48411843,10.2535647 7.48411843,9.71007874 C7.48411843,9.16646173 7.04348598,8.72596031 6.5,8.72596031 Z M6.4716989,7.95658961 C6.9398463,7.95658961 7.31929071,7.57701417 7.31929071,7.1089978 L7.31929071,3.15339465 C7.31929071,2.68524724 6.9398463,2.30580283 6.4716989,2.30580283 C6.0035515,2.30580283 5.62410709,2.68537827 5.62410709,3.15339465 L5.62410709,7.1089978 C5.62410709,7.5771452 6.0035515,7.95658961 6.4716989,7.95658961 Z" id="Shape"></path>
            </g>
        </g>
    </g>
</svg>