<?xml version="1.0" encoding="UTF-8"?>
<svg width="14px" height="15px" viewBox="0 0 14 15" version="1.1" xmlns="http://www.w3.org/2000/svg" xmlns:xlink="http://www.w3.org/1999/xlink">
    <!-- Generator: Sketch 52.5 (67469) - http://www.bohemiancoding.com/sketch -->
    <title>退出</title>
    <desc>Created with Sketch.</desc>
    <g id="Page-1" stroke="none" stroke-width="1" fill="none" fill-rule="evenodd">
        <g id="2企业详情" transform="translate(-1303.000000, -58.000000)" fill="#FFFFFF" fill-rule="nonzero">
            <g id="退出" transform="translate(1303.000000, 58.000000)">
                <path d="M7.16053119,7.30133244 C6.86512986,7.30694036 6.62087559,7.07248894 6.61438552,6.77710568 L6.61438552,0.531135578 C6.61438552,0.240710297 6.85914646,0.00416895904 7.16053119,0.00416895904 C7.4628292,0.00416895904 7.70850341,0.241623584 7.70850341,0.531135578 L7.70850341,6.77436582 C7.70586379,6.91679857 7.64673827,7.05234607 7.54413931,7.15117678 C7.44154036,7.2500075 7.30387629,7.30402191 7.16144447,7.30133244 L7.16053119,7.30133244 Z M6.99613951,14.6167617 C5.15554931,14.6236482 3.38416057,13.9157475 2.05525661,12.6422351 C1.42051459,12.0330093 0.911618141,11.3050391 0.557465855,10.4996637 C-0.253889493,8.64689694 -0.161140521,6.5227768 0.808619787,4.74778187 C1.32530525,3.80981009 2.05322075,3.00497569 2.93475203,2.39698102 C3.18107685,2.22723674 3.51732787,2.28113343 3.69825999,2.51936148 C3.78216314,2.63235896 3.81598485,2.77485255 3.79181175,2.91350258 C3.76763864,3.05215261 3.68759172,3.17479364 3.57039981,3.25273097 C2.82671198,3.76661094 2.2126547,4.44632607 1.77670406,5.238217 C1.33205058,6.04542627 1.09981033,6.95238888 1.10178493,7.87396341 C1.10178493,9.39367306 1.71551382,10.822054 2.82972402,11.8960796 C3.94927474,12.9728471 5.44466355,13.5704784 6.99796608,13.5619151 C8.55106751,13.5703372 10.0462991,12.9730963 11.1662082,11.8969928 C12.2685776,10.8491902 12.892572,9.39485419 12.8923207,7.87396341 C12.8950548,6.95252371 12.663433,6.04552157 12.2192281,5.238217 C11.7824307,4.44657459 11.1673982,3.76744357 10.4227925,3.25455754 C10.3075345,3.17767327 10.228254,3.05745877 10.2029704,2.92123708 C10.1776869,2.7850154 10.2085479,2.64435796 10.2885393,2.53123421 L10.2976722,2.52027476 C10.4782751,2.28216787 10.8142291,2.22825429 11.0602669,2.39789431 C11.9415808,3.00548398 12.6692199,3.81004576 13.1854858,4.74778187 C14.1565032,6.522365 14.2496094,8.64694013 13.437553,10.4996637 C13.0837126,11.3054822 12.5747837,12.0338091 11.9397623,12.6431484 C11.2981892,13.2618478 10.544298,13.7522491 9.71864819,14.0879685 C8.85406665,14.4392608 7.9293614,14.6188664 6.99613951,14.6167617 Z" id="形状"></path>
            </g>
        </g>
    </g>
</svg>